<svg width="60" height="60" viewBox="0 0 60 60" fill="none" xmlns="http://www.w3.org/2000/svg">
<path d="M24.0468 8.29688H10.8749C8.2499 8.29688 6.09365 10.4531 6.09365 13.125C5.9999 15.7031 8.0624 17.8594 10.6405 17.9531H24.1874L24.0468 8.29688Z" fill="#403D39"/>
<path d="M10.8732 18.0531L10.8732 18.0531H10.875H46.9219V18.0535L46.9305 18.0528L46.9307 18.0527L46.9315 18.0527L46.935 18.0524L46.9495 18.0513C46.9624 18.0503 46.9817 18.0489 47.007 18.0474C47.0576 18.0443 47.1322 18.0404 47.2273 18.0372C47.4175 18.031 47.6898 18.0279 48.0166 18.0406C48.6709 18.066 49.5411 18.1547 50.4096 18.4066C51.2787 18.6586 52.1395 19.0721 52.7823 19.7428C53.4228 20.411 53.8531 21.341 53.8531 22.6406V51.1344H10.875C8.25962 51.1344 6.19375 49.0242 6.19375 46.4062V14.4769C6.79342 16.521 8.67167 18.0138 10.8732 18.0531Z" fill="#252422" stroke="white" stroke-width="0.2"/>
<path d="M33.8437 34.1719C35.7656 32.7187 36.1406 30 34.6875 28.125C33.8906 27.0937 32.6719 26.4375 31.3594 26.3906H31.5C31.7344 26.3437 32.0156 26.3437 32.25 26.3906V23.7187C32.25 23.3906 32.1094 23.1094 31.8281 22.9687C31.4062 22.7344 30.8906 22.875 30.6562 23.2969C30.5625 23.4375 30.5156 23.5781 30.5625 23.7656V26.4844C28.2187 26.8594 26.5781 29.0625 26.9531 31.4531V31.5C27.1406 32.625 27.75 33.6562 28.6875 34.3125L20.7656 51.2812H25.9219L29.5781 43.5C30 42.5625 31.125 42.1406 32.1094 42.6094C32.4844 42.7969 32.8125 43.125 33 43.5L36.7969 51.2812H42.0469L33.8437 34.1719ZM31.1719 33.4219C29.6719 33.4219 28.5 32.2031 28.5 30.7031C28.5 29.2031 29.7187 28.0312 31.2187 28.0781C31.9219 28.0781 32.5312 28.3594 33.0469 28.8281C34.125 29.8594 34.125 31.5469 33.0937 32.625C32.625 33.0937 31.9219 33.4219 31.1719 33.4219Z" fill="#252422"/>
<path d="M21.6875 11.1406H39.1562V13.5156H21.6875V11.1406Z" fill="white" stroke="white"/>
<path d="M30.2968 26.4844V26.8564L30.6531 26.9633C31.5031 27.2183 32.204 27.6784 32.6937 28.3312L32.6984 28.3375L32.7033 28.3436C34.028 29.9996 33.741 32.4512 32.0782 33.7814L31.7674 34.0301L31.94 34.3887L42.2054 55.7164C42.6525 56.6478 42.2762 57.7509 41.3617 58.1899C40.4303 58.6369 39.3272 58.2606 38.8882 57.3461L38.8879 57.3455L32.091 43.2361L32.0911 43.2361L32.0878 43.2295C31.8519 42.7577 31.4453 42.3512 30.9735 42.1153L30.9736 42.1152L30.9649 42.1111C29.7347 41.5252 28.3051 42.0476 27.7642 43.2446C27.7637 43.2457 27.7632 43.2468 27.7627 43.2479L21.1124 57.4852C20.9506 57.8069 20.724 58.0946 20.4537 58.2635L20.4433 58.27L20.4332 58.277C19.5882 58.8649 18.4447 58.6505 17.8479 57.7926L17.848 57.7925L17.8406 57.7824C17.4424 57.2393 17.4009 56.5035 17.6971 55.9111L17.6973 55.9112L17.7031 55.8987L27.6875 34.4768L27.8647 34.0966L27.521 33.856C26.7131 33.2904 26.1747 32.3983 25.9999 31.4105V31.4062V31.3673L25.9939 31.3288C25.6621 29.2137 27.1133 27.2632 29.1883 26.9312L29.6093 26.8639V26.4375V23.7187V23.6572L29.5944 23.5975C29.5916 23.5864 29.5911 23.5803 29.591 23.5782C29.5923 23.5741 29.5982 23.5587 29.6191 23.5273L29.6303 23.5105L29.6401 23.4928C29.7371 23.3184 29.9456 23.2553 30.1321 23.3589L30.1416 23.3642L30.1513 23.3691C30.2269 23.4068 30.2968 23.4888 30.2968 23.6719V26.4844ZM32.8906 30.7578C32.9419 28.9759 31.495 27.5312 29.7656 27.5312C28.932 27.5312 28.101 27.8636 27.4901 28.4746C26.8859 29.0788 26.5468 29.8603 26.5468 30.7031C26.5468 32.4182 27.927 33.8706 29.664 33.875C31.4433 33.9262 32.8862 32.4838 32.8906 30.7578Z" fill="#403D39" stroke="white"/>
<path d="M36.9375 13.6406C36.2344 13.6406 35.6719 13.125 35.6719 12.4219C35.6719 12.0938 35.8125 11.7188 36.0469 11.4844C36.5625 11.0156 37.3125 11.0156 37.8281 11.4844C38.0625 11.7188 38.2031 12.0469 38.2031 12.375C38.1562 13.0781 37.6406 13.5938 36.9375 13.6406ZM23.0625 13.5938C22.3594 13.5938 21.7969 13.0312 21.7969 12.375C21.7969 12.0469 21.9375 11.7188 22.1719 11.4844C22.5938 10.9688 23.3906 10.875 23.9062 11.2969H23.9531C24.4687 11.7656 24.5156 12.5625 24.0469 13.0781L23.9062 13.2656C23.6719 13.5 23.3437 13.6406 23.0156 13.6406M37.3125 6.04688L39.7969 1.73438C39.9375 1.5 39.8437 1.21875 39.6562 1.03125C39.4219 0.9375 39.1875 0.984375 39.0469 1.17188L36.4688 5.625C32.3438 3.79688 27.6562 3.79688 23.5781 5.625L21.0469 1.21875C20.9531 1.07812 20.7656 0.9375 20.5781 0.9375C20.3906 0.9375 20.2031 1.03125 20.1094 1.21875C20.0156 1.35937 20.0156 1.59375 20.1094 1.73438L22.6406 6.04688C18.2344 8.4375 15.375 12.9375 14.9531 17.9062H45.0469C44.6719 12.8906 41.7656 8.4375 37.3594 6.04688" fill="#403D39"/>
<path d="M36.9375 13.6406C36.2344 13.6406 35.6719 13.125 35.6719 12.4219C35.6719 12.0938 35.8125 11.7188 36.0469 11.4844C36.5625 11.0156 37.3125 11.0156 37.8281 11.4844C38.0625 11.7188 38.2031 12.0469 38.2031 12.375C38.1562 13.0781 37.6406 13.5938 36.9375 13.6406ZM23.0625 13.5938C22.3594 13.5938 21.7969 13.0312 21.7969 12.375C21.7969 12.0469 21.9375 11.7188 22.1719 11.4844C22.5938 10.9688 23.3906 10.875 23.9062 11.2969H23.9531C24.4687 11.7656 24.5156 12.5625 24.0469 13.0781L23.9062 13.2656C23.6719 13.5 23.3437 13.6406 23.0156 13.6406M37.3125 6.04688L39.7969 1.73438C39.9375 1.5 39.8437 1.21875 39.6562 1.03125C39.4219 0.9375 39.1875 0.984375 39.0469 1.17188L36.4688 5.625C32.3438 3.79688 27.6562 3.79688 23.5781 5.625L21.0469 1.21875C20.9531 1.07812 20.7656 0.9375 20.5781 0.9375C20.3906 0.9375 20.2031 1.03125 20.1094 1.21875C20.0156 1.35937 20.0156 1.59375 20.1094 1.73438L22.6406 6.04688C18.2344 8.4375 15.375 12.9375 14.9531 17.9062H45.0469C44.6719 12.8906 41.7656 8.4375 37.3594 6.04688" fill="black" fill-opacity="0.2"/>
<path d="M49.5 27.2344H47.5313C47.4375 27.2812 47.3438 27.375 47.3438 27.5156V58.6875C47.3438 58.8281 47.4375 58.9219 47.5781 58.9219H49.6406C52.0313 58.9219 53.9531 56.9531 53.9531 54.6094V22.875C53.9531 25.2656 52.0313 27.1875 49.6406 27.1875H49.5V27.2344Z" fill="#403D39"/>
</svg>
