<svg width="60" height="61" viewBox="0 0 60 61" fill="none" xmlns="http://www.w3.org/2000/svg">
<g clip-path="url(#clip0_1513_2326)">
<path d="M13.1563 42.6737V42.6648L13.1559 42.6559L13.1094 41.3523V14.5839L16.1464 17.621L50.5054 51.98L43.7136 54.98L13.3874 44.3011C13.2235 43.7309 13.1563 43.1677 13.1563 42.6737Z" stroke="#212121"/>
<path d="M0.796913 31.4237C-0.187462 32.455 0.328163 34.6581 1.87504 36.2987L8.76566 43.2362L13.0782 44.7831C12.9375 44.08 12.75 43.3768 12.75 42.7675L12.7032 41.455L12.6094 13.4237M51.375 52.1425L54.75 44.455L43.9688 13.705C43.2657 13.5643 42.5625 13.4237 41.9532 13.3768L40.5938 13.33L12.6563 13.3768" fill="#212121"/>
<path d="M14.2716 12.8768L30.8852 1.8876L30.9133 1.86903L30.9386 1.84687C31.3438 1.4923 31.9833 1.35948 32.7637 1.53117C33.5384 1.70161 34.3931 2.16451 35.1308 2.90226L35.132 2.90345L41.9858 9.71087L43.1074 13.0395C42.6736 12.9594 42.2541 12.9242 41.8682 12.9237L40.5172 12.8771L40.5086 12.8768H40.5H14.2716Z" stroke="#212121"/>
</g>
<defs>
<clipPath id="clip0_1513_2326">
<rect width="60" height="60" fill="white" transform="translate(0 0.908081)"/>
</clipPath>
</defs>
</svg>
