<svg width="60" height="60" viewBox="0 0 60 60" fill="none" xmlns="http://www.w3.org/2000/svg">
<path d="M37.0267 37.1705L35.8758 39.3949C35.5291 40.065 34.8873 40.4779 34.1925 40.4779H25.376C24.6813 40.4779 24.0395 40.065 23.6928 39.3949L22.5418 37.1705H37.0267ZM40.2487 30.9435L38.2193 34.8654H21.3491L19.3199 30.9435H40.2487ZM38.2939 24.8543L40.2519 28.6386H19.3167L21.2746 24.8543H38.2939ZM34.1925 19.0979C34.8873 19.0979 35.5291 19.5109 35.8758 20.1809L37.1013 22.5492H22.4673L23.6928 20.1809C24.0395 19.5109 24.6813 19.0979 25.376 19.0979H34.1925Z" fill="#212121"/>
<path d="M12.5444 18.0657C11.5678 12.7946 11.3582 8.75172 11.9895 5.81601C12.3649 4.07002 13.0514 2.64566 14.0951 1.61801C15.1971 0.533084 16.5903 0.000708003 18.1558 0.000708003C20.7383 0.000708003 23.4531 1.31149 26.3544 3.80164C27.5378 4.81732 28.766 6.04157 30.0416 7.47507C30.1431 7.32959 30.2579 7.19237 30.3857 7.06555C33.9919 3.48867 37.028 1.26632 39.6248 0.409441C41.1688 -0.100056 42.6185 -0.148596 43.9386 0.345889C45.3321 0.86785 46.4424 1.94682 47.2258 3.45811C48.5186 5.95229 48.8596 9.22966 48.3776 13.2764C48.1811 14.9258 47.8452 16.7226 47.3707 18.6694C47.5497 18.6935 47.7292 18.7377 47.9069 18.8032C52.4823 20.4908 55.7222 22.3057 57.6837 24.3797C58.8507 25.6137 59.6128 26.9876 59.8883 28.5083C60.1791 30.1134 59.8956 31.7234 59.1131 33.2336C57.8227 35.7241 55.45 37.6884 52.0698 39.2443C50.7125 39.869 49.1768 40.4348 47.461 40.9437C47.5393 41.1404 47.6001 41.3494 47.6407 41.5686C48.6173 46.8397 48.8269 50.8826 48.1956 53.8183C47.8202 55.5643 47.1337 56.9886 46.09 58.0163C44.988 59.1012 43.5948 59.6336 42.0293 59.6336C39.4468 59.6336 36.732 58.3228 33.8307 55.8327C32.6347 54.8062 31.3929 53.5666 30.1028 52.1134C29.97 52.3445 29.807 52.5593 29.6143 52.7505C26.0081 56.3274 22.972 58.5498 20.3752 59.4066C18.8312 59.9161 17.3815 59.9647 16.0614 59.4702C14.6679 58.9482 13.5576 57.8693 12.7742 56.358C11.4814 53.8638 11.1404 50.5864 11.6224 46.5397C11.826 44.8306 12.1792 42.9634 12.6813 40.935C12.4851 40.9128 12.288 40.8666 12.0931 40.7948C7.51771 39.1071 4.27782 37.2923 2.31631 35.2182C1.14926 33.9842 0.387167 32.6104 0.111674 31.0897C-0.179108 29.4845 0.104427 27.8745 0.88688 26.3644C2.1773 23.8738 4.55001 21.9095 7.93024 20.3537C9.32795 19.7103 10.9149 19.1295 12.6928 18.6089C12.6295 18.4363 12.5795 18.2549 12.5444 18.0657Z" fill="#212121"/>
<path d="M44.4485 42.0867C44.9034 41.997 45.3393 42.3216 45.4409 42.8197L45.4465 42.8492L45.495 43.1294C47.0676 52.3321 45.9598 56.9334 42.1716 56.9334C38.4652 56.9334 33.747 53.0071 28.0171 45.1545C27.8905 44.981 27.8222 44.7638 27.8239 44.5403C27.828 44.0196 28.2034 43.5993 28.6679 43.588L28.6948 43.5878L28.9965 43.5902C31.4077 43.6047 33.7518 43.5112 36.0287 43.3095C38.7164 43.0714 41.523 42.6638 44.4485 42.0867ZM18.4325 35.1305L18.4471 35.1578L18.5985 35.4519C19.8118 37.7997 21.0759 40.0281 22.3908 42.1371C23.9394 44.6207 25.6808 47.135 27.6151 49.68C27.9143 50.0737 27.8802 50.6581 27.5426 51.0056L27.5206 51.0275L27.326 51.2139C20.9262 57.3175 16.7665 58.5359 14.8471 54.8693C12.9682 51.2803 13.6494 44.7545 16.8906 35.2918C16.9618 35.0839 17.0957 34.9099 17.2693 34.7996C17.6752 34.5418 18.1897 34.6906 18.4325 35.1305ZM47.696 21.5512L47.7223 21.5607L47.9631 21.6533C55.8627 24.7119 58.8639 28.0732 56.9669 31.7371C55.1115 35.3205 49.7176 37.9296 40.7854 39.5642C40.5862 39.6007 40.3818 39.5583 40.2078 39.4444C39.7967 39.1755 39.6594 38.5866 39.9011 38.1291C41.1804 35.7069 42.3327 33.2967 43.3578 30.8987C44.5204 28.179 45.6115 25.2598 46.631 22.1411C46.7855 21.6683 47.2396 21.4115 47.6697 21.5427L47.696 21.5512ZM19.7921 20.0113C20.2031 20.2802 20.3404 20.8691 20.0988 21.3266C18.8194 23.7488 17.6672 26.159 16.642 28.557C15.4794 31.2767 14.3884 34.1959 13.3689 37.3146C13.2111 37.7971 12.7416 38.0546 12.3038 37.9045L12.2776 37.895L12.0367 37.8024C4.13715 34.7438 1.13591 31.3825 3.03297 27.7186C4.88835 24.1352 10.2822 21.5261 19.2145 19.8915C19.4137 19.855 19.618 19.8974 19.7921 20.0113ZM45.1528 4.94671C47.0316 8.53574 46.3504 15.0616 43.1092 24.5243C43.038 24.7322 42.9041 24.9062 42.7305 25.0165C42.3247 25.2743 41.8102 25.1254 41.5673 24.6856L41.5528 24.6583L41.4014 24.3642C40.188 22.0163 38.9239 19.7879 37.609 17.679C36.0605 15.1953 34.319 12.681 32.3848 10.1361C32.0855 9.74235 32.1197 9.15796 32.4573 8.81042L32.4792 8.78856L32.6738 8.60211C39.0737 2.49859 43.2333 1.28013 45.1528 4.94671ZM18.152 2.76257C21.8584 2.76257 26.5765 6.68887 32.3065 14.5415C32.4331 14.715 32.5014 14.9322 32.4997 15.1557C32.4955 15.6763 32.1201 16.0966 31.6557 16.1079L31.6288 16.1081L31.327 16.1057C28.9159 16.0912 26.5718 16.1848 24.2949 16.3865C21.6072 16.6246 18.8006 17.0321 15.8751 17.6092C15.4202 17.6989 14.9842 17.3743 14.8827 16.8763L14.8771 16.8468L14.8286 16.5665C13.256 7.36388 14.3638 2.76257 18.152 2.76257Z" fill="white"/>
<path d="M26.0848 19.218H33.4854C34.5677 19.218 35.5673 19.8623 36.1061 20.9071L39.822 28.1139C40.3565 29.1506 40.3565 30.4252 39.822 31.462L36.1061 38.6687C35.5673 39.7135 34.5677 40.3578 33.4854 40.3578H26.0848C25.0025 40.3578 24.0028 39.7135 23.4641 38.6687L19.7482 31.462C19.2136 30.4252 19.2136 29.1506 19.7482 28.1139L23.4641 20.9071C24.0028 19.8623 25.0025 19.218 26.0848 19.218ZM32.3575 21.3932C33.4403 21.3932 34.4404 22.0382 34.9789 23.0838L37.5701 28.1154C38.1036 29.1514 38.1036 30.4245 37.5701 31.4604L34.9789 36.492C34.4404 37.5377 33.4403 38.1827 32.3575 38.1827H27.2127C26.1298 38.1827 25.1297 37.5377 24.5912 36.492L22 31.4604C21.4665 30.4245 21.4665 29.1514 22 28.1154L24.5912 23.0838C25.1297 22.0382 26.1298 21.3932 27.2127 21.3932H32.3575ZM31.1417 23.7723H28.4284C27.3467 23.7723 26.3474 24.4159 25.8085 25.4599L24.4392 28.1124C23.9037 29.1499 23.9037 30.426 24.4392 31.4634L25.8085 34.1159C26.3474 35.1599 27.3467 35.8036 28.4284 35.8036H31.1417C32.2235 35.8036 33.2227 35.1599 33.7617 34.1159L35.1309 31.4634C35.6665 30.426 35.6665 29.1499 35.1309 28.1124L33.7617 25.4599C33.2227 24.4159 32.2235 23.7723 31.1417 23.7723ZM29.9711 26.0494C31.0521 26.0494 32.0507 26.6921 32.5899 27.7348L32.784 28.1102C33.3211 29.1488 33.3211 30.427 32.784 31.4656L32.5899 31.841C32.0507 32.8838 31.0521 33.5265 29.9711 33.5265H29.599C28.5181 33.5265 27.5195 32.8838 26.9802 31.841L26.7861 31.4656C26.2491 30.427 26.2491 29.1488 26.7861 28.1102L26.9802 27.7348C27.5195 26.6921 28.5181 26.0494 29.599 26.0494H29.9711ZM29.7856 28.2925C29.3045 28.2925 28.8608 28.5775 28.6206 29.0402C28.3804 29.5028 28.3804 30.073 28.6206 30.5356C28.8608 30.9983 29.3045 31.2833 29.7846 31.2833C30.2657 31.2833 30.7094 30.9983 30.9496 30.5356C31.1898 30.073 31.1898 29.5028 30.9496 29.0402C30.7094 28.5775 30.2657 28.2925 29.7856 28.2925ZM18.885 29.7879H21.304H18.885Z" fill="white"/>
</svg>
