<svg width="60" height="60" viewBox="0 0 60 60" fill="none" xmlns="http://www.w3.org/2000/svg">
<path d="M1.71365 21.1139C1.71365 21.1139 0.29474 20.0868 1.99958 18.7171L5.96896 15.1575C5.96896 15.1575 7.10615 13.9579 8.30755 15.0037L44.9521 42.8137V56.1496C44.9521 56.1496 44.9338 58.244 42.2535 58.0134L1.71365 21.1139Z" fill="#212121"/>
<path d="M11.1604 29.7089L1.71372 38.3165C1.71372 38.3165 0.743408 39.0398 1.71372 40.3345L6.09935 44.3315C6.09935 44.3315 7.14091 45.4542 8.68122 44.1778L18.6933 36.5662L11.1604 29.7089Z" fill="#212121"/>
<path d="M27.7426 29.7802L45.0643 16.5216L44.9523 3.2574C44.9523 3.2574 44.2126 0.362404 41.7446 1.87037L18.6934 22.899L27.7426 29.7802Z" fill="#212121"/>
<path d="M42.2532 58.0299C43.2587 59.0625 44.4784 58.7236 44.4784 58.7236L57.977 52.0571C59.7053 50.8758 59.4634 49.411 59.4634 49.411V9.593C59.4634 7.84222 57.6765 7.238 57.6765 7.238L45.976 1.58441C43.4199 0.000499964 41.7446 1.87034 41.7446 1.87034C41.7446 1.87034 43.8976 0.3155 44.9523 3.25784V55.9064C44.9523 56.2688 44.8754 56.6236 44.7217 56.9443C44.4142 57.5686 43.7438 58.1489 42.1417 57.9057L42.2532 58.0299Z" fill="#212121"/>
</svg>
