<svg width="166" height="27" viewBox="0 0 166 27" fill="none" xmlns="http://www.w3.org/2000/svg">
<path d="M1.757 22.864C4.46633 20.688 6.589 18.9067 8.125 17.52C9.661 16.112 10.9517 14.6507 11.997 13.136C13.0637 11.6 13.597 10.096 13.597 8.62401C13.597 7.23735 13.2557 6.14935 12.573 5.36001C11.9117 4.54934 10.8343 4.14401 9.341 4.14401C7.89033 4.14401 6.75967 4.60268 5.949 5.52001C5.15967 6.41601 4.733 7.62134 4.669 9.13601H1.853C1.93833 6.74668 2.66367 4.90134 4.029 3.60001C5.39433 2.29868 7.15433 1.64801 9.309 1.64801C11.5063 1.64801 13.245 2.25601 14.525 3.47201C15.8263 4.68801 16.477 6.36268 16.477 8.49601C16.477 10.2667 15.9437 11.9947 14.877 13.68C13.8317 15.344 12.637 16.816 11.293 18.096C9.949 19.3547 8.23167 20.8267 6.141 22.512H17.149V24.944H1.757V22.864ZM39.8753 7.66401V9.93601H37.3153V25.2H34.4353V9.93601H25.2193V25.2H22.3073V9.93601H19.7793V7.66401H39.8753ZM110.646 25.2L105.334 16.08H101.814V25.2H98.9015V2.89601H106.102C107.787 2.89601 109.206 3.18401 110.358 3.76001C111.531 4.33601 112.406 5.11468 112.982 6.09601C113.558 7.07735 113.846 8.19735 113.846 9.45601C113.846 10.992 113.398 12.3467 112.502 13.52C111.627 14.6933 110.304 15.472 108.534 15.856L114.134 25.2H110.646ZM101.814 13.744H106.102C107.68 13.744 108.864 13.36 109.654 12.592C110.443 11.8027 110.838 10.7573 110.838 9.45601C110.838 8.13334 110.443 7.10935 109.654 6.38401C108.886 5.65868 107.702 5.29601 106.102 5.29601H101.814V13.744Z" fill="#EB5E28"/>
<path d="M46.626 10.512C47.138 9.50934 47.8633 8.73068 48.802 8.17601C49.762 7.62134 50.9247 7.34401 52.29 7.34401V10.352H51.522C48.258 10.352 46.626 12.1227 46.626 15.664V25.2H43.714V7.66401H46.626V10.512ZM54.5635 16.368C54.5635 14.576 54.9262 13.008 55.6515 11.664C56.3768 10.2987 57.3688 9.24268 58.6275 8.49601C59.9075 7.74934 61.3262 7.37601 62.8835 7.37601C64.4195 7.37601 65.7528 7.70668 66.8835 8.36801C68.0142 9.02934 68.8568 9.86134 69.4115 10.864V7.66401H72.3555V25.2H69.4115V21.936C68.8355 22.96 67.9715 23.8133 66.8195 24.496C65.6888 25.1573 64.3662 25.488 62.8515 25.488C61.2942 25.488 59.8862 25.104 58.6275 24.336C57.3688 23.568 56.3768 22.4907 55.6515 21.104C54.9262 19.7173 54.5635 18.1387 54.5635 16.368ZM69.4115 16.4C69.4115 15.0773 69.1448 13.9253 68.6115 12.944C68.0782 11.9627 67.3528 11.216 66.4355 10.704C65.5395 10.1707 64.5475 9.90401 63.4595 9.90401C62.3715 9.90401 61.3795 10.16 60.4835 10.672C59.5875 11.184 58.8728 11.9307 58.3395 12.912C57.8062 13.8933 57.5395 15.0453 57.5395 16.368C57.5395 17.712 57.8062 18.8853 58.3395 19.888C58.8728 20.8693 59.5875 21.6267 60.4835 22.16C61.3795 22.672 62.3715 22.928 63.4595 22.928C64.5475 22.928 65.5395 22.672 66.4355 22.16C67.3528 21.6267 68.0782 20.8693 68.6115 19.888C69.1448 18.8853 69.4115 17.7227 69.4115 16.4ZM76.1885 16.368C76.1885 14.576 76.5512 13.008 77.2765 11.664C78.0018 10.2987 78.9938 9.24268 80.2525 8.49601C81.5325 7.74934 82.9618 7.37601 84.5405 7.37601C85.9058 7.37601 87.1752 7.69601 88.3485 8.33601C89.5218 8.95468 90.4178 9.77601 91.0365 10.8V1.52001H93.9805V25.2H91.0365V21.904C90.4605 22.9493 89.6072 23.8133 88.4765 24.496C87.3458 25.1573 86.0232 25.488 84.5085 25.488C82.9512 25.488 81.5325 25.104 80.2525 24.336C78.9938 23.568 78.0018 22.4907 77.2765 21.104C76.5512 19.7173 76.1885 18.1387 76.1885 16.368ZM91.0365 16.4C91.0365 15.0773 90.7698 13.9253 90.2365 12.944C89.7032 11.9627 88.9778 11.216 88.0605 10.704C87.1645 10.1707 86.1725 9.90401 85.0845 9.90401C83.9965 9.90401 83.0045 10.16 82.1085 10.672C81.2125 11.184 80.4978 11.9307 79.9645 12.912C79.4312 13.8933 79.1645 15.0453 79.1645 16.368C79.1645 17.712 79.4312 18.8853 79.9645 19.888C80.4978 20.8693 81.2125 21.6267 82.1085 22.16C83.0045 22.672 83.9965 22.928 85.0845 22.928C86.1725 22.928 87.1645 22.672 88.0605 22.16C88.9778 21.6267 89.7032 20.8693 90.2365 19.888C90.7698 18.8853 91.0365 17.7227 91.0365 16.4ZM119.874 4.81601C119.32 4.81601 118.85 4.62401 118.466 4.24001C118.082 3.85601 117.89 3.38668 117.89 2.83201C117.89 2.27734 118.082 1.80801 118.466 1.42401C118.85 1.04001 119.32 0.848011 119.874 0.848011C120.408 0.848011 120.856 1.04001 121.218 1.42401C121.602 1.80801 121.794 2.27734 121.794 2.83201C121.794 3.38668 121.602 3.85601 121.218 4.24001C120.856 4.62401 120.408 4.81601 119.874 4.81601ZM121.282 7.66401V25.2H118.37V7.66401H121.282ZM125.157 16.368C125.157 14.576 125.52 13.008 126.245 11.664C126.971 10.2987 127.963 9.24268 129.221 8.49601C130.501 7.74934 131.92 7.37601 133.477 7.37601C135.013 7.37601 136.347 7.70668 137.477 8.36801C138.608 9.02934 139.451 9.86134 140.005 10.864V7.66401H142.949V25.2H140.005V21.936C139.429 22.96 138.565 23.8133 137.413 24.496C136.283 25.1573 134.96 25.488 133.445 25.488C131.888 25.488 130.48 25.104 129.221 24.336C127.963 23.568 126.971 22.4907 126.245 21.104C125.52 19.7173 125.157 18.1387 125.157 16.368ZM140.005 16.4C140.005 15.0773 139.739 13.9253 139.205 12.944C138.672 11.9627 137.947 11.216 137.029 10.704C136.133 10.1707 135.141 9.90401 134.053 9.90401C132.965 9.90401 131.973 10.16 131.077 10.672C130.181 11.184 129.467 11.9307 128.933 12.912C128.4 13.8933 128.133 15.0453 128.133 16.368C128.133 17.712 128.4 18.8853 128.933 19.888C129.467 20.8693 130.181 21.6267 131.077 22.16C131.973 22.672 132.965 22.928 134.053 22.928C135.141 22.928 136.133 22.672 137.029 22.16C137.947 21.6267 138.672 20.8693 139.205 19.888C139.739 18.8853 140.005 17.7227 140.005 16.4ZM156.414 7.34401C158.548 7.34401 160.276 7.99468 161.598 9.29601C162.921 10.576 163.582 12.432 163.582 14.864V25.2H160.702V15.28C160.702 13.5307 160.265 12.1973 159.39 11.28C158.516 10.3413 157.321 9.87201 155.806 9.87201C154.27 9.87201 153.044 10.352 152.126 11.312C151.23 12.272 150.782 13.6693 150.782 15.504V25.2H147.87V7.66401H150.782V10.16C151.358 9.26401 152.137 8.57068 153.118 8.08001C154.121 7.58934 155.22 7.34401 156.414 7.34401Z" fill="#FFFCF2"/>
</svg>
