<svg id="rosca" xmlns="http://www.w3.org/2000/svg" viewBox="0 0 642.47 642.47"><defs><style>.cls-1{font-size:34.64px;}.cls-1,.cls-2,.cls-3,.cls-4,.cls-5{fill:#fffcf2;}.cls-1,.cls-2,.cls-4,.cls-5{font-family:MyriadPro-Regular, Myriad Pro;}.cls-2{font-size:46.42px;}.cls-4{font-size:11.27px;}.cls-5{font-size:25px;}</style></defs><text class="cls-1" transform="translate(327.87 531.99) rotate(-179.97)">J</text><text class="cls-1" transform="translate(315.26 532.16) rotate(-177.78)">a</text><text class="cls-1" transform="translate(299.29 531.59) rotate(-173.42)">v</text><text class="cls-1" transform="matrix(-0.98, -0.19, 0.19, -0.98, 283.31, 529.77)">a</text><text class="cls-1" transform="translate(267.36 526.66) rotate(-164.26)">S</text><text class="cls-1" transform="matrix(-0.94, -0.35, 0.35, -0.94, 251.17, 522.08)">c</text><text class="cls-1" transform="matrix(-0.91, -0.41, 0.41, -0.91, 236.98, 516.77)">r</text><text class="cls-1" transform="translate(226.76 512.19) rotate(-153.33)">i</text><text class="cls-1" transform="matrix(-0.86, -0.51, 0.51, -0.86, 219.76, 508.9)">p</text><text class="cls-1" transform="translate(203.22 499.01) rotate(-145.28)">t</text><text class="cls-1" transform="matrix(-0.8, -0.61, 0.61, -0.8, 194.01, 492.58)"> </text><text class="cls-1" transform="translate(188.34 488.3) rotate(-140.39)">•</text><text class="cls-1" transform="translate(181.02 482.22) rotate(-138.07)"> </text><text class="cls-1" transform="matrix(-0.71, -0.7, 0.7, -0.71, 175.71, 477.55)">J</text><text class="cls-1" transform="translate(166.82 468.88) rotate(-131.34)">a</text><text class="cls-1" transform="translate(156.23 456.88) rotate(-126.88)">v</text><text class="cls-1" transform="translate(146.56 444.03) rotate(-122.37)">a</text><text class="cls-1" transform="matrix(-0.47, -0.88, 0.88, -0.47, 137.85, 430.34)">S</text><text class="cls-1" transform="translate(130.03 415.43) rotate(-113.24)">c</text><text class="cls-1" transform="translate(124.09 401.47) rotate(-109.55)">r</text><text class="cls-1" transform="matrix(-0.29, -0.96, 0.96, -0.29, 120.39, 390.94)">i</text><text class="cls-1" transform="translate(117.95 383.6) rotate(-103.02)">p</text><text class="cls-1" transform="translate(113.74 364.77) rotate(-98.74)">t</text><text class="cls-1" transform="translate(112.08 353.7) rotate(-96.18)"> </text><text class="cls-1" transform="matrix(-0.07, -1, 1, -0.07, 111.28, 346.63)">•</text><text class="cls-1" transform="matrix(-0.03, -1, 1, -0.03, 110.66, 337.1)"> </text><text class="cls-1" transform="translate(110.49 329.91) rotate(-90.09)">J</text><text class="cls-1" transform="translate(110.31 317.29) rotate(-88.27)">a</text><text class="cls-1" transform="matrix(0.1, -0.99, 0.99, 0.1, 110.75, 301.27)">v</text><text class="cls-1" transform="matrix(0.18, -0.98, 0.98, 0.18, 112.41, 285.28)">a</text><text class="cls-1" transform="translate(115.35 269.32) rotate(-74.82)">S</text><text class="cls-1" transform="translate(119.78 253.09) rotate(-70.29)">c</text><text class="cls-1" transform="translate(124.94 238.85) rotate(-66.6)">r</text><text class="cls-1" transform="matrix(0.44, -0.9, 0.9, 0.44, 129.43, 228.57)">i</text><text class="cls-1" transform="translate(132.64 221.54) rotate(-60.09)">p</text><text class="cls-1" transform="translate(142.37 204.9) rotate(-55.84)">t</text><text class="cls-1" transform="matrix(0.6, -0.8, 0.8, 0.6, 148.7, 195.64)"> </text><text class="cls-1" transform="matrix(0.63, -0.78, 0.78, 0.63, 152.93, 189.93)">•</text><text class="cls-1" transform="matrix(0.66, -0.75, 0.75, 0.66, 158.96, 182.53)"> </text><text class="cls-1" transform="translate(163.57 177.18) rotate(-45.9)">J</text><text class="cls-1" transform="matrix(0.74, -0.67, 0.67, 0.74, 172.16, 168.2)">a</text><text class="cls-1" transform="matrix(0.79, -0.61, 0.61, 0.79, 184.03, 157.51)">v</text><text class="cls-1" transform="matrix(0.84, -0.54, 0.54, 0.84, 196.78, 147.72)">a</text><text class="cls-1" transform="translate(210.4 138.87) rotate(-28.33)">S</text><text class="cls-1" transform="translate(225.24 130.89) rotate(-23.8)">c</text><text class="cls-1" transform="translate(239.1 124.84) rotate(-20.12)">r</text><text class="cls-1" transform="translate(249.63 121.02) rotate(-17.41)">i</text><text class="cls-1" transform="translate(256.95 118.51) rotate(-13.59)">p</text><text class="cls-1" transform="translate(275.74 114.11) rotate(-9.31)">t</text><text class="cls-1" transform="translate(286.79 112.34) rotate(-6.74)"> </text><text class="cls-1" transform="translate(293.84 111.48) rotate(-4.42)">•</text><text class="cls-1" transform="translate(303.37 110.76) rotate(-2.13)"> </text><text class="cls-1" transform="translate(310.51 110.51) rotate(-0.25)">J</text><text class="cls-1" transform="translate(323.17 110.33) rotate(1.26)">a</text><text class="cls-1" transform="translate(339.18 110.63) rotate(5.46)">v</text><text class="cls-1" transform="matrix(0.98, 0.17, -0.17, 0.98, 355.18, 112.13)">a</text><text class="cls-1" transform="matrix(0.97, 0.25, -0.25, 0.97, 371.18, 114.92)">S</text><text class="cls-1" transform="translate(387.48 119.19) rotate(19.15)">c</text><text class="cls-1" transform="translate(401.77 124.21) rotate(22.84)">r</text><text class="cls-1" transform="translate(412.07 128.59) rotate(25.54)">i</text><text class="cls-1" transform="matrix(0.87, 0.49, -0.49, 0.87, 419.14, 131.73)">p</text><text class="cls-1" transform="matrix(0.83, 0.55, -0.55, 0.83, 435.88, 141.31)">t</text><text class="cls-1" transform="matrix(0.81, 0.59, -0.59, 0.81, 445.18, 147.54)"> </text><text class="cls-1" transform="matrix(0.78, 0.62, -0.62, 0.78, 450.94, 151.71)">•</text><text class="cls-1" transform="translate(458.4 157.66) rotate(40.81)"> </text><text class="cls-1" transform="translate(463.79 162.23) rotate(43.54)">J</text><text class="cls-1" transform="matrix(0.67, 0.74, -0.74, 0.67, 472.87, 170.74)">a</text><text class="cls-1" transform="matrix(0.62, 0.79, -0.79, 0.62, 483.66, 182.49)">v</text><text class="cls-1" transform="matrix(0.55, 0.83, -0.83, 0.55, 493.57, 195.14)">a</text><text class="cls-1" transform="translate(502.57 208.68) rotate(61.11)">S</text><text class="cls-1" transform="matrix(0.41, 0.91, -0.91, 0.41, 510.68, 223.43)">c</text><text class="cls-1" transform="translate(516.89 237.26) rotate(69.32)">r</text><text class="cls-1" transform="matrix(0.31, 0.95, -0.95, 0.31, 520.81, 247.74)">i</text><text class="cls-1" transform="matrix(0.24, 0.97, -0.97, 0.24, 523.39, 255.04)">p</text><text class="cls-1" transform="translate(527.97 273.76) rotate(80.13)">t</text><text class="cls-1" transform="translate(529.85 284.82) rotate(82.7)"> </text><text class="cls-1" transform="matrix(0.09, 1, -1, 0.09, 530.78, 291.86)">•</text><text class="cls-1" transform="translate(531.59 301.35) rotate(87.32)"> </text><text class="cls-1" transform="translate(531.93 308.48) rotate(89.53)">J</text><text class="cls-1" transform="translate(532.1 321.15) rotate(90.87)">a</text><text class="cls-1" transform="translate(531.94 337.18) rotate(94.9)">v</text><text class="cls-1" transform="matrix(-0.16, 0.99, -0.99, -0.16, 530.59, 353.19)">a</text><text class="cls-1" transform="translate(527.96 369.23) rotate(104.04)">S</text><text class="cls-1" transform="translate(523.85 385.57) rotate(108.59)">c</text><text class="cls-1" transform="translate(518.98 399.89) rotate(112.27)">r</text><text class="cls-1" transform="translate(514.71 410.24) rotate(114.97)">i</text><text class="cls-1" transform="translate(511.62 417.34) rotate(118.78)">p</text><text class="cls-1" transform="translate(502.21 434.18) rotate(123.04)">t</text><text class="cls-1" transform="matrix(-0.58, 0.81, -0.81, -0.58, 496.07, 443.55)"> </text><text class="cls-1" transform="matrix(-0.61, 0.79, -0.79, -0.61, 491.96, 449.35)">•</text><text class="cls-1" transform="translate(486.09 456.85) rotate(130.25)"> </text><text class="cls-1" transform="matrix(-0.68, 0.73, -0.73, -0.68, 481.58, 462.29)">J</text><text class="cls-1" transform="matrix(-0.73, 0.68, -0.68, -0.73, 473.17, 471.43)">a</text><text class="cls-1" transform="matrix(-0.78, 0.62, -0.62, -0.78, 461.49, 482.36)">v</text><text class="cls-1" transform="translate(448.94 492.39) rotate(145.94)">a</text><text class="cls-1" transform="matrix(-0.87, 0.49, -0.49, -0.87, 435.5, 501.52)">S</text><text class="cls-1" transform="translate(420.83 509.78) rotate(155.06)">c</text><text class="cls-1" transform="matrix(-0.93, 0.36, -0.36, -0.93, 407.06, 516.12)">r</text><text class="cls-1" transform="matrix(-0.95, 0.32, -0.32, -0.95, 396.62, 520.14)">i</text><text class="cls-1" transform="matrix(-0.97, 0.25, -0.25, -0.97, 389.36, 522.79)">p</text><text class="cls-1" transform="translate(370.69 527.56) rotate(169.56)">t</text><text class="cls-1" transform="matrix(-0.99, 0.14, -0.14, -0.99, 359.64, 529.55)"> </text><text class="cls-1" transform="translate(352.62 530.55) rotate(174.46)">•</text><text class="cls-1" transform="translate(343.12 531.45) rotate(176.78)"> </text><text class="cls-2" transform="translate(323.72 603.74) rotate(-179)">J</text><text class="cls-2" transform="translate(307.03 603.59) rotate(-175.34)">a</text><text class="cls-2" transform="translate(285.67 601.89) rotate(-170.97)">v</text><text class="cls-2" transform="matrix(-0.97, -0.23, 0.23, -0.97, 264.39, 598.54)">a</text><text class="cls-2" transform="translate(243.22 593.51) rotate(-162.01)">S</text><text class="cls-2" transform="matrix(-0.92, -0.38, 0.38, -0.92, 221.76, 586.51)">c</text><text class="cls-2" transform="translate(203.01 578.69) rotate(-153.97)">r</text><text class="cls-2" transform="translate(189.54 572.06) rotate(-151.34)">i</text><text class="cls-2" transform="matrix(-0.84, -0.54, 0.54, -0.84, 180.32, 567.33)">p</text><text class="cls-2" transform="matrix(-0.8, -0.6, 0.6, -0.8, 158.58, 553.33)">t</text><text class="cls-2" transform="matrix(-0.78, -0.63, 0.63, -0.78, 146.55, 544.36)"> </text><text class="cls-2" transform="matrix(-0.75, -0.66, 0.66, -0.75, 139.11, 538.38)">•</text><text class="cls-2" transform="translate(129.52 529.92) rotate(-136.44)"> </text><text class="cls-2" transform="translate(122.58 523.45) rotate(-133.77)">J</text><text class="cls-2" transform="matrix(-0.64, -0.77, 0.77, -0.64, 110.98, 511.5)">a</text><text class="cls-2" transform="matrix(-0.58, -0.81, 0.81, -0.58, 97.24, 495.09)">v</text><text class="cls-2" transform="translate(84.7 477.56) rotate(-121.09)">a</text><text class="cls-2" transform="translate(73.43 458.94) rotate(-116.58)">S</text><text class="cls-2" transform="matrix(-0.38, -0.93, 0.93, -0.38, 63.35, 438.74)">c</text><text class="cls-2" transform="translate(55.76 419.91) rotate(-108.55)">r</text><text class="cls-2" transform="matrix(-0.27, -0.96, 0.96, -0.27, 51.02, 405.65)">i</text><text class="cls-2" transform="translate(47.93 395.75) rotate(-102.16)">p</text><text class="cls-2" transform="translate(42.66 370.46) rotate(-97.99)">t</text><text class="cls-2" transform="translate(40.62 355.56) rotate(-95.49)"> </text><text class="cls-2" transform="translate(39.67 346.09) rotate(-93.22)">•</text><text class="cls-2" transform="matrix(-0.02, -1, 1, -0.02, 38.99, 333.3)"> </text><text class="cls-2" transform="matrix(0.02, -1, 1, 0.02, 38.73, 323.75)">J</text><text class="cls-2" transform="translate(38.88 307.05) rotate(-85.35)">a</text><text class="cls-2" transform="translate(40.58 285.7) rotate(-80.98)">v</text><text class="cls-2" transform="translate(43.93 264.41) rotate(-76.55)">a</text><text class="cls-2" transform="matrix(0.31, -0.95, 0.95, 0.31, 48.95, 243.24)">S</text><text class="cls-2" transform="translate(55.95 221.78) rotate(-67.58)">c</text><text class="cls-2" transform="translate(63.77 203.03) rotate(-63.98)">r</text><text class="cls-2" transform="matrix(0.48, -0.88, 0.88, 0.48, 70.39, 189.56)">i</text><text class="cls-2" transform="translate(75.13 180.35) rotate(-57.63)">p</text><text class="cls-2" transform="translate(89.12 158.6) rotate(-53.48)">t</text><text class="cls-2" transform="matrix(0.63, -0.78, 0.78, 0.63, 98.11, 146.55)"> </text><text class="cls-2" transform="translate(104.07 139.13) rotate(-48.72)">•</text><text class="cls-2" transform="translate(112.53 129.54) rotate(-46.45)"> </text><text class="cls-2" transform="translate(119 122.6) rotate(-43.77)">J</text><text class="cls-2" transform="translate(130.95 111) rotate(-39.86)">a</text><text class="cls-2" transform="matrix(0.81, -0.58, 0.58, 0.81, 147.36, 97.25)">v</text><text class="cls-2" transform="matrix(0.86, -0.52, 0.52, 0.86, 164.89, 84.71)">a</text><text class="cls-2" transform="translate(183.51 73.44) rotate(-26.59)">S</text><text class="cls-2" transform="translate(203.72 63.35) rotate(-22.16)">c</text><text class="cls-2" transform="translate(222.56 55.76) rotate(-18.55)">r</text><text class="cls-2" transform="translate(236.79 51.03) rotate(-15.9)">i</text><text class="cls-2" transform="translate(246.69 47.93) rotate(-12.17)">p</text><text class="cls-2" transform="matrix(0.99, -0.14, 0.14, 0.99, 271.98, 42.66)">t</text><text class="cls-2" transform="translate(286.88 40.62) rotate(-5.49)"> </text><text class="cls-2" transform="translate(296.36 39.67) rotate(-3.23)">•</text><text class="cls-2" transform="translate(309.14 38.99) rotate(-1.12)"> </text><text class="cls-2" transform="translate(318.69 38.73) rotate(0.99)">J</text><text class="cls-2" transform="translate(335.39 38.88) rotate(4.65)">a</text><text class="cls-2" transform="translate(356.74 40.58) rotate(9.01)">v</text><text class="cls-2" transform="translate(378.03 43.92) rotate(13.45)">a</text><text class="cls-2" transform="translate(399.23 48.95) rotate(17.99)">S</text><text class="cls-2" transform="translate(420.66 55.94) rotate(22.42)">c</text><text class="cls-2" transform="translate(439.41 63.76) rotate(26.02)">r</text><text class="cls-2" transform="translate(452.88 70.38) rotate(28.65)">i</text><text class="cls-2" transform="matrix(0.84, 0.54, -0.54, 0.84, 462.1, 75.11)">p</text><text class="cls-2" transform="matrix(0.8, 0.59, -0.59, 0.8, 483.84, 89.11)">t</text><text class="cls-2" transform="matrix(0.78, 0.63, -0.63, 0.78, 495.9, 98.1)"> </text><text class="cls-2" transform="matrix(0.75, 0.66, -0.66, 0.75, 503.32, 104.06)">•</text><text class="cls-2" transform="matrix(0.72, 0.69, -0.69, 0.72, 512.91, 112.51)"> </text><text class="cls-2" transform="matrix(0.69, 0.72, -0.72, 0.69, 519.85, 118.98)">J</text><text class="cls-2" transform="translate(531.45 130.93) rotate(50.14)">a</text><text class="cls-2" transform="matrix(0.58, 0.81, -0.81, 0.58, 545.2, 147.34)">v</text><text class="cls-2" transform="translate(557.76 164.89) rotate(58.9)">a</text><text class="cls-2" transform="translate(569.03 183.51) rotate(63.41)">S</text><text class="cls-2" transform="translate(579.11 203.7) rotate(67.84)">c</text><text class="cls-2" transform="translate(586.7 222.54) rotate(71.44)">r</text><text class="cls-2" transform="matrix(0.27, 0.96, -0.96, 0.27, 591.43, 236.77)">i</text><text class="cls-2" transform="translate(594.53 246.67) rotate(77.82)">p</text><text class="cls-2" transform="translate(599.8 271.96) rotate(81.99)">t</text><text class="cls-2" transform="translate(601.84 286.85) rotate(84.5)"> </text><text class="cls-2" transform="matrix(0.06, 1, -1, 0.06, 602.8, 296.36)">•</text><text class="cls-2" transform="translate(603.48 309.12) rotate(88.88)"> </text><text class="cls-2" transform="matrix(-0.02, 1, -1, -0.02, 603.74, 318.69)">J</text><text class="cls-2" transform="matrix(-0.08, 1, -1, -0.08, 603.59, 335.36)">a</text><text class="cls-2" transform="matrix(-0.16, 0.99, -0.99, -0.16, 601.9, 356.72)">v</text><text class="cls-2" transform="translate(598.55 378) rotate(103.44)">a</text><text class="cls-2" transform="matrix(-0.31, 0.95, -0.95, -0.31, 593.53, 399.18)">S</text><text class="cls-2" transform="translate(586.54 420.64) rotate(112.41)">c</text><text class="cls-2" transform="matrix(-0.44, 0.9, -0.9, -0.44, 578.72, 439.39)">r</text><text class="cls-2" transform="matrix(-0.48, 0.88, -0.88, -0.48, 572.1, 452.86)">i</text><text class="cls-2" transform="translate(567.36 462.1) rotate(122.36)">p</text><text class="cls-2" transform="translate(553.38 483.82) rotate(126.51)">t</text><text class="cls-2" transform="matrix(-0.63, 0.78, -0.78, -0.63, 544.39, 495.88)"> </text><text class="cls-2" transform="translate(538.43 503.3) rotate(131.27)">•</text><text class="cls-2" transform="translate(529.98 512.89) rotate(133.54)"> </text><text class="cls-2" transform="translate(523.51 519.83) rotate(136.22)">J</text><text class="cls-2" transform="translate(511.56 531.43) rotate(140.13)">a</text><text class="cls-2" transform="translate(495.15 545.19) rotate(144.49)">v</text><text class="cls-2" transform="matrix(-0.86, 0.52, -0.52, -0.86, 477.61, 557.74)">a</text><text class="cls-2" transform="translate(458.98 569.02) rotate(153.41)">S</text><text class="cls-2" transform="translate(438.79 579.09) rotate(157.83)">c</text><text class="cls-2" transform="translate(419.96 586.69) rotate(161.44)">r</text><text class="cls-2" transform="translate(405.73 591.42) rotate(164.08)">i</text><text class="cls-2" transform="translate(395.83 594.52) rotate(167.82)">p</text><text class="cls-2" transform="matrix(-0.99, 0.14, -0.14, -0.99, 370.51, 599.8)">t</text><text class="cls-2" transform="matrix(-1, 0.1, -0.1, -1, 355.64, 601.84)"> </text><text class="cls-2" transform="matrix(-1, 0.06, -0.06, -1, 346.14, 602.79)">•</text><text class="cls-2" transform="matrix(-1, 0.02, -0.02, -1, 333.35, 603.48)"> </text><rect class="cls-3" x="289.73" y="289.73" width="63" height="63" rx="31.5"/><text class="cls-4" transform="translate(217.89 312.83) rotate(-85.81)">•</text><text class="cls-4" transform="translate(218.13 309.7) rotate(-84.26)"> </text><text class="cls-4" transform="matrix(0.13, -0.99, 0.99, 0.13, 218.34, 307.39)">J</text><text class="cls-4" transform="translate(218.87 303.32) rotate(-79.75)">a</text><text class="cls-4" transform="translate(219.8 298.14) rotate(-76.76)">v</text><text class="cls-4" transform="translate(221 293.02) rotate(-73.74)">a</text><text class="cls-4" transform="translate(222.49 287.88) rotate(-70.65)">S</text><text class="cls-4" transform="translate(224.33 282.68) rotate(-67.64)">c</text><text class="cls-4" transform="matrix(0.42, -0.91, 0.91, 0.42, 226.23, 278.08)">r</text><text class="cls-4" transform="translate(227.78 274.75) rotate(-63.4)">i</text><text class="cls-4" transform="translate(228.9 272.42) rotate(-60.86)">p</text><text class="cls-4" transform="translate(232 266.92) rotate(-58.04)">t</text><text class="cls-4" transform="translate(233.96 263.8) rotate(-56.32)"> </text><text class="cls-4" transform="matrix(0.58, -0.82, 0.82, 0.58, 235.25, 261.84)">•</text><text class="cls-4" transform="translate(237.06 259.29) rotate(-53.23)"> </text><text class="cls-4" transform="matrix(0.62, -0.78, 0.78, 0.62, 238.45, 257.41)">J</text><text class="cls-4" transform="translate(240.97 254.22) rotate(-48.76)">a</text><text class="cls-4" transform="translate(244.44 250.26) rotate(-45.79)">v</text><text class="cls-4" transform="matrix(0.73, -0.68, 0.68, 0.73, 248.11, 246.49)">a</text><text class="cls-4" transform="matrix(0.77, -0.64, 0.64, 0.77, 252.03, 242.84)">S</text><text class="cls-4" transform="matrix(0.8, -0.6, 0.6, 0.8, 256.28, 239.31)">c</text><text class="cls-4" transform="matrix(0.83, -0.56, 0.56, 0.83, 260.27, 236.34)">r</text><text class="cls-4" transform="translate(263.31 234.27) rotate(-32.58)">i</text><text class="cls-4" transform="matrix(0.87, -0.5, 0.5, 0.87, 265.45, 232.86)">p</text><text class="cls-4" transform="translate(270.94 229.72) rotate(-27.22)">t</text><text class="cls-4" transform="translate(274.21 228.04) rotate(-25.51)"> </text><text class="cls-4" transform="matrix(0.91, -0.41, 0.41, 0.91, 276.31, 227.04)">•</text><text class="cls-4" transform="matrix(0.92, -0.38, 0.38, 0.92, 279.19, 225.76)"> </text><text class="cls-4" transform="matrix(0.94, -0.35, 0.35, 0.94, 281.33, 224.86)">J</text><text class="cls-4" transform="translate(285.15 223.41) rotate(-17.85)">a</text><text class="cls-4" transform="matrix(0.97, -0.26, 0.26, 0.97, 290.15, 221.8)">v</text><text class="cls-4" transform="translate(295.26 220.44) rotate(-11.83)">a</text><text class="cls-4" transform="translate(300.49 219.34) rotate(-8.75)">S</text><text class="cls-4" transform="translate(305.96 218.5) rotate(-5.76)">c</text><text class="cls-4" transform="translate(310.89 218.02) rotate(-3.35)">r</text><text class="cls-4" transform="translate(314.57 217.81) rotate(-1.64)">i</text><text class="cls-4" transform="translate(317.17 217.74) rotate(-0.12)">p</text><text class="cls-4" transform="translate(323.54 217.71) rotate(1.04)">t</text><text class="cls-4" transform="matrix(1, 0.05, -0.05, 1, 327.21, 217.79)"> </text><text class="cls-4" transform="translate(329.56 217.89) rotate(4.15)">•</text><text class="cls-4" transform="matrix(1, 0.1, -0.1, 1, 332.67, 218.12)"> </text><text class="cls-4" transform="translate(335 218.33) rotate(7.52)">J</text><text class="cls-4" transform="translate(339.06 218.85) rotate(10.19)">a</text><text class="cls-4" transform="translate(344.23 219.78) rotate(13.19)">v</text><text class="cls-4" transform="translate(349.37 220.98) rotate(16.21)">a</text><text class="cls-4" transform="matrix(0.94, 0.33, -0.33, 0.94, 354.49, 222.46)">S</text><text class="cls-4" transform="matrix(0.93, 0.38, -0.38, 0.93, 359.72, 224.3)">c</text><text class="cls-4" transform="translate(364.32 226.2) rotate(24.77)">r</text><text class="cls-4" transform="matrix(0.89, 0.45, -0.45, 0.89, 367.65, 227.75)">i</text><text class="cls-4" transform="translate(369.96 228.85) rotate(29.09)">p</text><text class="cls-4" transform="matrix(0.85, 0.53, -0.53, 0.85, 375.46, 231.95)">t</text><text class="cls-4" transform="matrix(0.83, 0.55, -0.55, 0.83, 378.58, 233.9)"> </text><text class="cls-4" transform="translate(380.53 235.19) rotate(35.16)">•</text><text class="cls-4" transform="matrix(0.8, 0.6, -0.6, 0.8, 383.08, 237)"> </text><text class="cls-4" transform="translate(384.96 238.38) rotate(38.53)">J</text><text class="cls-4" transform="translate(388.19 240.92) rotate(41.2)">a</text><text class="cls-4" transform="translate(392.13 244.37) rotate(44.15)">v</text><text class="cls-4" transform="matrix(0.68, 0.73, -0.73, 0.68, 395.93, 248.05)">a</text><text class="cls-4" transform="matrix(0.64, 0.77, -0.77, 0.64, 399.58, 251.98)">S</text><text class="cls-4" transform="translate(403.11 256.22) rotate(53.17)">c</text><text class="cls-4" transform="matrix(0.57, 0.83, -0.83, 0.57, 406.08, 260.21)">r</text><text class="cls-4" transform="matrix(0.54, 0.84, -0.84, 0.54, 408.15, 263.25)">i</text><text class="cls-4" transform="matrix(0.5, 0.87, -0.87, 0.5, 409.56, 265.37)">p</text><text class="cls-4" transform="matrix(0.46, 0.89, -0.89, 0.46, 412.71, 270.86)">t</text><text class="cls-4" transform="translate(414.39 274.15) rotate(64.45)"> </text><text class="cls-4" transform="translate(415.4 276.24) rotate(66)">•</text><text class="cls-4" transform="matrix(0.38, 0.92, -0.92, 0.38, 416.67, 279.1)"> </text><text class="cls-4" transform="translate(417.58 281.26) rotate(69.4)">J</text><text class="cls-4" transform="translate(419.03 285.08) rotate(72.1)">a</text><text class="cls-4" transform="matrix(0.26, 0.97, -0.97, 0.26, 420.65, 290.08)">v</text><text class="cls-4" transform="matrix(0.21, 0.98, -0.98, 0.21, 422.01, 295.18)">a</text><text class="cls-4" transform="translate(423.12 300.41) rotate(81.2)">S</text><text class="cls-4" transform="translate(423.95 305.86) rotate(84.18)">c</text><text class="cls-4" transform="translate(424.44 310.81) rotate(86.6)">r</text><text class="cls-4" transform="translate(424.65 314.49) rotate(88.37)">i</text><text class="cls-4" transform="translate(424.72 317.08) rotate(89.82)">p</text><text class="cls-4" transform="matrix(-0.02, 1, -1, -0.02, 424.76, 323.46)">t</text><text class="cls-4" transform="translate(424.69 327.13) rotate(92.56)"> </text><text class="cls-4" transform="matrix(-0.07, 1, -1, -0.07, 424.59, 329.48)">•</text><text class="cls-4" transform="translate(424.37 332.58) rotate(96.14)">J</text><text class="cls-4" transform="matrix(-0.15, 0.99, -0.99, -0.15, 423.95, 336.65)">a</text><text class="cls-4" transform="translate(423.15 341.84) rotate(101.8)">v</text><text class="cls-4" transform="matrix(-0.26, 0.97, -0.97, -0.26, 422.08, 347.01)">a</text><text class="cls-4" transform="translate(420.72 352.16) rotate(107.9)">S</text><text class="cls-4" transform="translate(419.01 357.44) rotate(110.93)">c</text><text class="cls-4" transform="translate(417.23 362.06) rotate(113.37)">r</text><text class="cls-4" transform="translate(415.76 365.43) rotate(115.16)">i</text><text class="cls-4" transform="matrix(-0.46, 0.89, -0.89, -0.46, 414.7, 367.79)">p</text><text class="cls-4" transform="matrix(-0.51, 0.86, -0.86, -0.51, 411.74, 373.36)">t</text><text class="cls-4" transform="translate(409.87 376.52) rotate(122.23)"> </text><text class="cls-4" transform="translate(408.62 378.51) rotate(123.78)">•</text><text class="cls-4" transform="translate(406.88 381.1) rotate(125.33)"> </text><text class="cls-4" transform="translate(405.54 383.02) rotate(127.16)">J</text><text class="cls-4" transform="translate(403.08 386.29) rotate(129.82)">a</text><text class="cls-4" transform="matrix(-0.68, 0.73, -0.73, -0.68, 399.72, 390.32)">v</text><text class="cls-4" transform="translate(396.13 394.21) rotate(135.77)">a</text><text class="cls-4" transform="translate(392.32 397.93) rotate(138.8)">S</text><text class="cls-4" transform="translate(388.15 401.57) rotate(141.78)">c</text><text class="cls-4" transform="matrix(-0.81, 0.58, -0.58, -0.81, 384.22, 404.65)">r</text><text class="cls-4" transform="matrix(-0.83, 0.56, -0.56, -0.83, 381.23, 406.79)">i</text><text class="cls-4" transform="matrix(-0.85, 0.52, -0.52, -0.85, 379.15, 408.25)">p</text><text class="cls-4" transform="translate(373.75 411.52) rotate(151.34)">t</text><text class="cls-4" transform="translate(370.51 413.28) rotate(153.05)"> </text><text class="cls-4" transform="matrix(-0.9, 0.43, -0.43, -0.9, 368.42, 414.35)">•</text><text class="cls-4" transform="translate(365.59 415.69) rotate(156.17)"> </text><text class="cls-4" transform="translate(363.45 416.65) rotate(158.02)">J</text><text class="cls-4" transform="translate(359.68 418.19) rotate(160.71)">a</text><text class="cls-4" transform="translate(354.73 419.93) rotate(163.7)">v</text><text class="cls-4" transform="translate(349.65 421.42) rotate(166.73)">a</text><text class="cls-4" transform="translate(344.46 422.65) rotate(169.8)">S</text><text class="cls-4" transform="matrix(-0.99, 0.13, -0.13, -0.99, 339.02, 423.62)">c</text><text class="cls-4" transform="translate(334.08 424.23) rotate(175.23)">r</text><text class="cls-4" transform="translate(330.41 424.53) rotate(177.01)">i</text><text class="cls-4" transform="translate(327.86 424.69) rotate(179.31)">p</text><text class="cls-4" transform="translate(321.47 424.74) rotate(-179.71)">t</text><text class="cls-4" transform="matrix(-1, -0.02, 0.02, -1, 317.77, 424.74)"> </text><text class="cls-4" transform="translate(315.43 424.69) rotate(-177.27)">•</text><text class="cls-4" transform="matrix(-1, -0.07, 0.07, -1, 312.32, 424.54)"> </text><text class="cls-4" transform="translate(309.96 424.38) rotate(-173.91)">J</text><text class="cls-4" transform="translate(305.92 423.97) rotate(-171.25)">a</text><text class="cls-4" transform="matrix(-0.98, -0.2, 0.2, -0.98, 300.73, 423.17)">v</text><text class="cls-4" transform="matrix(-0.97, -0.25, 0.25, -0.97, 295.55, 422.1)">a</text><text class="cls-4" transform="translate(290.38 420.74) rotate(-162.15)">S</text><text class="cls-4" transform="translate(285.12 419.04) rotate(-159.13)">c</text><text class="cls-4" transform="translate(280.48 417.26) rotate(-156.68)">r</text><text class="cls-4" transform="translate(277.11 415.8) rotate(-154.88)">i</text><text class="cls-4" transform="translate(274.78 414.75) rotate(-152.36)">p</text><text class="cls-4" transform="translate(269.18 411.78) rotate(-149.52)">t</text><text class="cls-4" transform="translate(266.01 409.91) rotate(-147.81)"> </text><text class="cls-4" transform="translate(264.03 408.67) rotate(-146.26)">•</text><text class="cls-4" transform="matrix(-0.82, -0.58, 0.58, -0.82, 261.43, 406.92)"> </text><text class="cls-4" transform="matrix(-0.8, -0.6, 0.6, -0.8, 259.51, 405.59)">J</text><text class="cls-4" transform="translate(256.26 403.14) rotate(-140.23)">a</text><text class="cls-4" transform="matrix(-0.73, -0.68, 0.68, -0.73, 252.2, 399.77)">v</text><text class="cls-4" transform="translate(248.34 396.21) rotate(-134.3)">a</text><text class="cls-4" transform="matrix(-0.66, -0.75, 0.75, -0.66, 244.59, 392.38)">S</text><text class="cls-4" transform="matrix(-0.62, -0.79, 0.79, -0.62, 240.96, 388.22)">c</text><text class="cls-4" transform="translate(237.89 384.31) rotate(-125.85)">r</text><text class="cls-4" transform="translate(235.74 381.33) rotate(-124.06)">i</text><text class="cls-4" transform="matrix(-0.52, -0.85, 0.85, -0.52, 234.27, 379.23)">p</text><text class="cls-4" transform="translate(230.99 373.81) rotate(-118.71)">t</text><text class="cls-4" transform="matrix(-0.45, -0.89, 0.89, -0.45, 229.22, 370.58)"> </text><text class="cls-4" transform="translate(228.16 368.51) rotate(-115.44)">•</text><text class="cls-4" transform="translate(226.82 365.7) rotate(-113.39)">J</text><text class="cls-4" transform="translate(225.17 361.94) rotate(-110.68)">a</text><text class="cls-4" transform="translate(223.31 357.04) rotate(-107.69)">v</text><text class="cls-4" transform="matrix(-0.25, -0.97, 0.97, -0.25, 221.71, 352.02)">a</text><text class="cls-4" transform="translate(220.35 346.85) rotate(-101.59)">S</text><text class="cls-4" transform="translate(219.25 341.42) rotate(-98.57)">c</text><text class="cls-4" transform="translate(218.52 336.49) rotate(-96.14)">r</text><text class="cls-4" transform="translate(218.13 332.86) rotate(-94.37)">i</text><text class="cls-4" transform="translate(217.89 330.3) rotate(-91.87)">p</text><text class="cls-4" transform="matrix(0, -1, 1, 0, 217.74, 323.94)">t</text><text class="cls-5" transform="matrix(-0.02, 1, -1, -0.02, 479.65, 321.13)">•</text><text class="cls-5" transform="translate(479.49 328.03) rotate(93.37)"> </text><text class="cls-5" transform="matrix(-0.1, 0.99, -0.99, -0.1, 479.24, 333.14)">J</text><text class="cls-5" transform="translate(478.37 342.08) rotate(99.67)">a</text><text class="cls-5" transform="translate(476.45 353.46) rotate(103.86)">v</text><text class="cls-5" transform="translate(473.68 364.75) rotate(108.1)">a</text><text class="cls-5" transform="translate(470.04 375.93) rotate(112.43)">S</text><text class="cls-5" transform="translate(465.38 387.18) rotate(116.65)">c</text><text class="cls-5" transform="matrix(-0.5, 0.87, -0.87, -0.5, 460.44, 396.94)">r</text><text class="cls-5" transform="translate(456.36 403.93) rotate(122.58)">i</text><text class="cls-5" transform="matrix(-0.59, 0.81, -0.81, -0.59, 453.47, 408.72)">p</text><text class="cls-5" transform="translate(445.18 419.93) rotate(130.06)">t</text><text class="cls-5" transform="translate(439.93 426.12) rotate(132.44)"> </text><text class="cls-5" transform="matrix(-0.7, 0.71, -0.71, -0.7, 436.49, 429.91)">•</text><text class="cls-5" transform="matrix(-0.73, 0.69, -0.69, -0.73, 431.64, 434.82)"> </text><text class="cls-5" transform="matrix(-0.76, 0.65, -0.65, -0.76, 427.94, 438.36)">J</text><text class="cls-5" transform="matrix(-0.8, 0.6, -0.6, -0.8, 421.16, 444.26)">a</text><text class="cls-5" transform="matrix(-0.84, 0.54, -0.54, -0.84, 411.95, 451.21)">v</text><text class="cls-5" transform="translate(402.2 457.51) rotate(151.41)">a</text><text class="cls-5" transform="translate(391.89 463.15) rotate(155.73)">S</text><text class="cls-5" transform="translate(380.78 468.14) rotate(159.96)">c</text><text class="cls-5" transform="translate(370.5 471.85) rotate(163.39)">r</text><text class="cls-5" transform="translate(362.73 474.15) rotate(165.92)">i</text><text class="cls-5" transform="matrix(-0.98, 0.18, -0.18, -0.98, 357.33, 475.64)">p</text><text class="cls-5" transform="matrix(-0.99, 0.11, -0.11, -0.99, 343.62, 478.09)">t</text><text class="cls-5" transform="translate(335.56 478.99) rotate(175.83)"> </text><text class="cls-5" transform="translate(321.08 481.71) rotate(-142.96)">•</text><text class="cls-5" transform="translate(308.77 479.15) rotate(-174.6)"> </text><text class="cls-5" transform="matrix(-0.99, -0.14, 0.14, -0.99, 303.7, 478.72)">J</text><text class="cls-5" transform="translate(294.79 477.53) rotate(-168.28)">a</text><text class="cls-5" transform="translate(283.48 475.2) rotate(-164.08)">v</text><text class="cls-5" transform="translate(272.29 472.02) rotate(-159.83)">a</text><text class="cls-5" transform="matrix(-0.91, -0.41, 0.41, -0.91, 261.28, 468)">S</text><text class="cls-5" transform="matrix(-0.88, -0.48, 0.48, -0.88, 250.21, 462.94)">c</text><text class="cls-5" transform="translate(240.62 457.65) rotate(-147.89)">r</text><text class="cls-5" transform="translate(233.76 453.32) rotate(-145.38)">i</text><text class="cls-5" transform="matrix(-0.79, -0.62, 0.62, -0.79, 229.1, 450.26)">p</text><text class="cls-5" transform="matrix(-0.74, -0.67, 0.67, -0.74, 218.19, 441.58)">t</text><text class="cls-5" transform="matrix(-0.71, -0.7, 0.7, -0.71, 212.19, 436.12)"> </text><text class="cls-5" transform="translate(208.5 432.53) rotate(-133.37)">•</text><text class="cls-5" transform="translate(203.79 427.52) rotate(-131.21)"> </text><text class="cls-5" transform="translate(200.38 423.7) rotate(-128.65)">J</text><text class="cls-5" transform="translate(194.72 416.71) rotate(-124.91)">a</text><text class="cls-5" transform="translate(188.09 407.25) rotate(-120.74)">v</text><text class="cls-5" transform="translate(182.15 397.28) rotate(-116.53)">a</text><text class="cls-5" transform="translate(176.88 386.78) rotate(-112.21)">S</text><text class="cls-5" transform="translate(172.3 375.51) rotate(-107.99)">c</text><text class="cls-5" transform="translate(168.96 365.1) rotate(-104.55)">r</text><text class="cls-5" transform="translate(166.94 357.25) rotate(-102.02)">i</text><text class="cls-5" transform="matrix(-0.15, -0.99, 0.99, -0.15, 165.64, 351.8)">p</text><text class="cls-5" transform="translate(163.68 338.02) rotate(-94.52)">t</text><text class="cls-5" transform="translate(163.07 329.91) rotate(-92.2)"> </text><text class="cls-5" transform="translate(162.86 324.76) rotate(-90.08)">•</text><text class="cls-5" transform="translate(162.87 317.89) rotate(-87.81)"> </text><text class="cls-5" transform="translate(163.01 312.78) rotate(-85.33)">J</text><text class="cls-5" transform="translate(163.69 303.81) rotate(-81.58)">a</text><text class="cls-5" transform="matrix(0.22, -0.98, 0.98, 0.22, 165.36, 292.38)">v</text><text class="cls-5" transform="matrix(0.29, -0.96, 0.96, 0.29, 167.89, 281.04)">a</text><text class="cls-5" transform="translate(171.27 269.81) rotate(-68.83)">S</text><text class="cls-5" transform="matrix(0.43, -0.9, 0.9, 0.43, 175.67, 258.47)">c</text><text class="cls-5" transform="translate(180.41 248.59) rotate(-61.18)">r</text><text class="cls-5" transform="translate(184.33 241.51) rotate(-58.67)">i</text><text class="cls-5" transform="matrix(0.57, -0.82, 0.82, 0.57, 187.12, 236.66)">p</text><text class="cls-5" transform="matrix(0.63, -0.78, 0.78, 0.63, 195.16, 225.28)">t</text><text class="cls-5" transform="translate(200.26 218.98) rotate(-48.81)"> </text><text class="cls-5" transform="matrix(0.69, -0.73, 0.73, 0.69, 203.64, 215.09)">•</text><text class="cls-5" transform="matrix(0.71, -0.7, 0.7, 0.71, 208.37, 210.1)"> </text><text class="cls-5" transform="translate(211.99 206.48) rotate(-41.94)">J</text><text class="cls-5" transform="translate(218.63 200.44) rotate(-38.21)">a</text><text class="cls-5" transform="translate(227.7 193.27) rotate(-34.04)">v</text><text class="cls-5" transform="translate(237.33 186.75) rotate(-29.83)">a</text><text class="cls-5" transform="translate(247.5 180.9) rotate(-25.53)">S</text><text class="cls-5" transform="translate(258.48 175.67) rotate(-21.31)">c</text><text class="cls-5" transform="translate(268.68 171.73) rotate(-17.88)">r</text><text class="cls-5" transform="matrix(0.96, -0.26, 0.26, 0.96, 276.41, 169.26)">i</text><text class="cls-5" transform="translate(281.75 167.66) rotate(-11.79)">p</text><text class="cls-5" transform="matrix(0.99, -0.14, 0.14, 0.99, 295.42, 164.9)">t</text><text class="cls-5" transform="translate(303.47 163.82) rotate(-5.41)"> </text><text class="cls-5" transform="matrix(1, -0.06, 0.06, 1, 308.58, 163.32)">•</text><text class="cls-5" transform="matrix(1, -0.02, 0.02, 1, 315.45, 162.94)"> </text><text class="cls-5" transform="matrix(1, 0.03, -0.03, 1, 320.57, 162.79)">J</text><text class="cls-5" transform="translate(329.55 162.96) rotate(5.12)">a</text><text class="cls-5" transform="translate(341.05 163.97) rotate(9.28)">v</text><text class="cls-5" transform="translate(352.52 165.83) rotate(13.51)">a</text><text class="cls-5" transform="translate(363.94 168.56) rotate(17.84)">S</text><text class="cls-5" transform="translate(375.52 172.3) rotate(22.07)">c</text><text class="cls-5" transform="translate(385.67 176.46) rotate(25.51)">r</text><text class="cls-5" transform="translate(392.96 179.96) rotate(28.02)">i</text><text class="cls-5" transform="translate(397.96 182.47) rotate(31.56)">p</text><text class="cls-5" transform="translate(409.79 189.85) rotate(35.53)">t</text><text class="cls-5" transform="matrix(0.79, 0.61, -0.61, 0.79, 416.36, 194.57)"> </text><text class="cls-5" transform="translate(420.44 197.75) rotate(39.77)"> </text><text class="cls-5" transform="translate(424.39 201.01) rotate(41.93)">•</text><text class="cls-5" transform="translate(429.52 205.63) rotate(44.09)"> </text><text class="cls-5" transform="matrix(0.69, 0.73, -0.73, 0.69, 433.23, 209.16)">J</text><text class="cls-5" transform="translate(439.43 215.65) rotate(50.37)">a</text><text class="cls-5" transform="translate(446.81 224.54) rotate(54.53)">v</text><text class="cls-5" transform="matrix(0.52, 0.85, -0.85, 0.52, 453.57, 233.99)">a</text><text class="cls-5" transform="matrix(0.45, 0.89, -0.89, 0.45, 459.68, 244.02)">S</text><text class="cls-5" transform="translate(465.18 254.87) rotate(67.25)">c</text><text class="cls-5" transform="matrix(0.33, 0.94, -0.94, 0.33, 469.38, 264.98)">r</text><text class="cls-5" transform="translate(472.04 272.62) rotate(73.21)">i</text><text class="cls-5" transform="translate(473.79 277.95) rotate(76.78)">p</text><text class="cls-5" transform="translate(476.88 291.53) rotate(80.76)">t</text><text class="cls-5" transform="translate(478.16 299.52) rotate(83.15)"> </text><text class="cls-5" transform="matrix(0.09, 1, -1, 0.09, 478.77, 304.65)"> </text></svg>